<?xml version="1.0" encoding="UTF-8" standalone="no"?>
<!DOCTYPE svg PUBLIC "-//W3C//DTD SVG 1.1//EN" "http://www.w3.org/Graphics/SVG/1.1/DTD/svg11.dtd">
<svg width="100%" height="100%" viewBox="0 0 1632 1290" version="1.1" xmlns="http://www.w3.org/2000/svg" xmlns:xlink="http://www.w3.org/1999/xlink" xml:space="preserve" xmlns:serif="http://www.serif.com/" style="fill-rule:evenodd;clip-rule:evenodd;stroke-linejoin:round;stroke-miterlimit:1.41421;">
    <g transform="matrix(2.00744,0,0,2.00744,-141.464,-1718.92)">
        <path d="M883.209,1498.42L789.251,1498.42C792.185,1496.72 794.848,1494.77 797.243,1492.58L787.567,1482.29C785.271,1484.17 782.51,1485.89 779.285,1487.43C776.06,1488.98 772.151,1489.76 767.559,1489.76C761.217,1489.76 756.242,1488.26 752.634,1485.28C749.026,1482.29 746.621,1478.04 745.418,1472.51L801.179,1471.85C801.507,1466.65 800.933,1461.48 799.457,1456.34C797.981,1451.2 795.713,1446.78 792.651,1443.07C789.59,1439.37 785.79,1436.46 781.253,1434.37C776.716,1432.26 771.495,1431.21 765.591,1431.21C760.452,1431.21 755.641,1432.13 751.158,1433.95C746.676,1435.77 742.794,1438.32 739.514,1441.58C736.234,1444.84 733.637,1448.68 731.724,1453.11C729.811,1457.53 728.854,1462.34 728.854,1467.53C728.854,1472.73 729.783,1477.57 731.642,1482.05C733.501,1486.52 736.097,1490.37 739.432,1493.57C741.351,1495.42 743.515,1497.03 745.926,1498.42L710.649,1498.42L710.649,1382.62L694.085,1382.62L694.085,1498.42L660.7,1498.42C662.727,1497.02 664.579,1495.37 666.258,1493.49C669.164,1490.23 671.467,1486.38 673.167,1481.96C674.867,1477.54 675.717,1472.67 675.717,1467.37C675.717,1462.06 674.895,1457.2 673.25,1452.77C671.606,1448.35 669.331,1444.54 666.425,1441.33C663.519,1438.12 660.12,1435.64 656.227,1433.87C652.335,1432.1 648.141,1431.21 643.646,1431.21C637.725,1431.21 632.818,1432.49 628.926,1435.03C625.033,1437.57 622.711,1438.72 620.081,1442.7L619.462,1349.03C619.928,1340.75 621.795,1334.92 625.061,1331.54C628.328,1328.15 632.586,1326.23 637.835,1325.76C640.169,1325.76 642.006,1325.99 643.348,1326.46C644.689,1326.93 646.06,1327.63 647.46,1328.56L653.409,1313.16C651.776,1312.46 650.026,1311.76 648.16,1311.06C646.293,1310.36 644.018,1309.9 641.335,1309.66C637.252,1309.43 633.286,1310.6 629.436,1313.16C625.586,1315.73 622.32,1319.69 619.637,1325.06L620.162,1311.24L602.488,1311.24L602.593,1498.42L582.727,1498.42L582.727,1459.9C582.727,1450.95 580.458,1443.93 575.92,1438.84C571.383,1433.76 565.014,1431.05 556.814,1430.72C551.457,1430.38 546.591,1431.55 542.218,1434.2C537.844,1436.85 534.346,1440.28 531.721,1444.48C529.979,1440.28 527.474,1437.02 524.208,1434.7C520.942,1432.37 516.805,1431.21 511.798,1431.21C502.868,1431.21 496.444,1435.69 492.525,1444.65L493.017,1432.71L476.288,1432.71L476.288,1498.42L446.812,1498.42C449.745,1496.72 452.409,1494.77 454.804,1492.58L445.128,1482.29C442.832,1484.17 440.071,1485.89 436.845,1487.43C433.62,1488.98 429.711,1489.76 425.119,1489.76C418.778,1489.76 413.803,1488.26 410.195,1485.28C406.587,1482.29 404.181,1478.04 402.979,1472.51L458.74,1471.85C459.068,1466.65 458.494,1461.48 457.018,1456.34C455.542,1451.2 453.273,1446.78 450.212,1443.07C447.15,1439.37 443.351,1436.46 438.813,1434.37C434.276,1432.26 429.055,1431.21 423.151,1431.21C418.012,1431.21 413.202,1432.13 408.719,1433.95C404.236,1435.77 400.355,1438.32 397.075,1441.58C393.794,1444.84 391.198,1448.68 389.284,1453.11C387.371,1457.53 386.414,1462.34 386.414,1467.53C386.414,1472.73 387.344,1477.57 389.202,1482.05C391.061,1486.52 393.658,1490.37 396.993,1493.57C398.912,1495.42 401.076,1497.03 403.486,1498.42L366.002,1498.42C366.401,1498.12 366.781,1497.8 367.144,1497.47C369.276,1495.53 370.807,1493.24 371.736,1490.59C372.665,1487.93 373.13,1485.11 373.13,1482.13C373.13,1478.48 372.447,1475.41 371.08,1472.92C369.713,1470.44 367.909,1468.36 365.668,1466.7C363.426,1465.05 361.021,1463.78 358.452,1462.89C355.882,1462.01 353.231,1461.23 350.497,1460.57C347.655,1459.9 345.304,1459.24 343.445,1458.58C341.587,1457.91 340.111,1457.25 339.017,1456.59C337.924,1455.92 337.159,1455.15 336.721,1454.27C336.284,1453.38 336.065,1452.28 336.065,1450.95C336.94,1446.75 339.728,1444.43 344.429,1443.98C348.037,1444.09 351.017,1444.87 353.368,1446.31C355.718,1447.74 357.604,1449.73 359.026,1452.28L369.03,1441.66C366.406,1438.79 363.153,1436.33 359.272,1434.28C355.39,1432.24 350.661,1431.21 345.085,1431.21C341.696,1431.21 338.498,1431.63 335.491,1432.46C332.484,1433.29 329.888,1434.56 327.701,1436.27C325.514,1437.99 323.765,1440.14 322.453,1442.74C321.141,1445.34 320.485,1448.35 320.485,1451.78C320.485,1455.21 321.059,1458.11 322.207,1460.49C323.355,1462.86 324.886,1464.88 326.799,1466.54C328.712,1468.2 330.899,1469.55 333.359,1470.6C335.819,1471.65 338.307,1472.51 340.821,1473.17C343.773,1473.73 346.288,1474.31 348.365,1474.91C350.443,1475.52 352.165,1476.21 353.532,1476.99C354.898,1477.76 355.882,1478.59 356.484,1479.48C357.085,1480.36 357.386,1481.52 357.386,1482.96C357.386,1485.28 356.429,1487.16 354.516,1488.6C352.602,1490.03 349.568,1490.81 345.413,1490.92C341.477,1490.92 337.951,1490.12 334.835,1488.51C331.719,1486.91 329.177,1484.45 327.209,1481.13L315.565,1489.42C317.594,1492.75 320.755,1495.75 325.05,1498.42L301.46,1498.42L301.46,1461.07C301.46,1451.56 299.055,1444.23 294.244,1439.09C289.433,1433.95 283.256,1431.38 275.712,1431.38C270.464,1431.27 265.817,1432.46 261.772,1434.94C257.726,1437.43 254.61,1441 252.423,1445.64L252.751,1432.71L236.187,1432.71L236.187,1498.42L206.711,1498.42C209.643,1496.72 212.307,1494.77 214.702,1492.58L205.026,1482.29C202.73,1484.17 199.969,1485.89 196.744,1487.43C193.519,1488.98 189.61,1489.76 185.018,1489.76C178.676,1489.76 173.702,1488.26 170.094,1485.28C166.485,1482.29 164.08,1478.04 162.877,1472.51L218.639,1471.85C218.967,1466.65 218.393,1461.48 216.917,1456.34C215.441,1451.2 213.172,1446.78 210.11,1443.07C207.049,1439.37 203.25,1436.46 198.712,1434.37C194.175,1432.26 188.954,1431.21 183.05,1431.21C177.911,1431.21 173.1,1432.13 168.617,1433.95C164.135,1435.77 160.253,1438.32 156.973,1441.58C153.693,1444.84 151.096,1448.68 149.183,1453.11C147.27,1457.53 146.313,1462.34 146.313,1467.53C146.313,1472.73 147.242,1477.57 149.101,1482.05C150.96,1486.52 153.556,1490.37 156.891,1493.57C158.811,1495.42 160.975,1497.03 163.385,1498.42L70.47,1498.42L476.84,856.275L883.209,1498.42ZM284.928,1498.42L252.717,1498.42L252.423,1464.55C252.642,1458.91 254.364,1454.43 257.589,1451.12C260.815,1447.8 265.161,1446.14 270.628,1446.14C275.657,1446.58 279.265,1448.16 281.452,1450.87C283.639,1453.58 284.896,1457.42 285.224,1462.39L284.928,1498.42ZM521.257,1498.42L493,1498.42L492.853,1464.22C492.743,1458.25 494.102,1453.82 496.928,1450.95C499.755,1448.08 503.615,1446.64 508.507,1446.64C512.964,1446.75 516.226,1448.05 518.291,1450.54C520.357,1453.02 521.444,1456.7 521.553,1461.56L521.257,1498.42ZM566.194,1498.42L537.79,1498.42L537.79,1464.22C537.79,1458.36 539.129,1453.96 541.808,1451.03C544.486,1448.1 548.286,1446.64 553.206,1446.64C558.017,1446.64 561.433,1447.91 563.456,1450.45C565.479,1453 566.49,1456.7 566.49,1461.56L566.194,1498.42ZM639.062,1489.09C645.101,1489.09 649.877,1487.13 653.39,1483.21C656.904,1479.28 658.66,1474 658.66,1467.37C658.66,1461.07 656.904,1455.95 653.39,1452.03C649.877,1448.1 645.101,1446.14 639.062,1446.14C632.915,1446.14 628.03,1448.1 624.407,1452.03C620.783,1455.95 618.971,1461.07 618.971,1467.37C618.971,1474 620.783,1479.28 624.407,1483.21C628.03,1487.13 632.915,1489.09 639.062,1489.09ZM201.91,1461.56C201.145,1456.81 199.286,1452.88 196.334,1449.79C193.382,1446.69 189.009,1445.03 183.214,1444.81C177.856,1444.81 173.374,1446.25 169.765,1449.13C166.157,1452 163.807,1456.26 162.713,1461.89L201.91,1461.56ZM442.012,1461.56C441.246,1456.81 439.387,1452.88 436.435,1449.79C433.483,1446.69 429.11,1445.03 423.315,1444.81C417.958,1444.81 413.475,1446.25 409.867,1449.13C406.259,1452 403.908,1456.26 402.815,1461.89L442.012,1461.56ZM784.451,1461.56C783.686,1456.81 781.827,1452.88 778.875,1449.79C775.923,1446.69 771.549,1445.03 765.755,1444.81C760.397,1444.81 755.914,1446.25 752.306,1449.13C748.698,1452 746.348,1456.26 745.254,1461.89L784.451,1461.56ZM520.769,1311.24L522.169,1272.91L504.145,1272.91L504.145,1311.24L493.121,1311.24L493.121,1326.11L504.145,1326.11L504.145,1359.88C504.145,1364.78 504.699,1368.92 505.807,1372.31C506.916,1375.69 508.491,1378.43 510.532,1380.53C512.574,1382.63 515.023,1384.15 517.882,1385.08C520.74,1386.02 523.919,1386.48 527.418,1386.48C532.201,1386.48 536.08,1385.76 539.055,1384.32C542.03,1382.88 544.8,1381.06 547.367,1378.87L537.918,1367.23C536.984,1368.4 535.818,1369.36 534.418,1370.12C533.018,1370.88 531.268,1371.26 529.168,1371.26C526.835,1371.26 525.027,1370.5 523.744,1368.98C522.46,1367.45 521.702,1364.58 521.469,1360.37L520.944,1326.11L541.417,1326.11L541.417,1311.24L520.769,1311.24ZM292.585,1386.31C284.186,1386.31 277.215,1384.76 271.674,1381.67C266.133,1378.58 262.137,1375.05 259.687,1371.08L272.111,1362.33C274.211,1365.83 276.924,1368.43 280.248,1370.12C283.573,1371.81 287.335,1372.66 291.535,1372.66C295.968,1372.54 299.205,1371.73 301.247,1370.21C303.288,1368.69 304.309,1366.71 304.309,1364.26C304.309,1362.74 303.988,1361.52 303.347,1360.58C302.705,1359.65 301.655,1358.78 300.197,1357.96C298.739,1357.14 296.901,1356.41 294.685,1355.77C292.468,1355.13 289.785,1354.52 286.635,1353.93C283.952,1353.23 281.298,1352.33 278.674,1351.22C276.049,1350.11 273.716,1348.68 271.674,1346.93C269.632,1345.18 267.999,1343.06 266.774,1340.55C265.549,1338.04 264.937,1334.98 264.937,1331.36C264.937,1327.74 265.637,1324.57 267.037,1321.82C268.437,1319.08 270.303,1316.81 272.636,1315C274.97,1313.19 277.74,1311.85 280.948,1310.98C284.156,1310.1 287.569,1309.66 291.185,1309.66C297.135,1309.66 302.18,1310.74 306.322,1312.9C310.463,1315.06 313.934,1317.65 316.733,1320.69L306.059,1331.89C304.543,1329.2 302.53,1327.1 300.022,1325.59C297.514,1324.07 294.335,1323.25 290.485,1323.14C285.469,1323.6 282.494,1326.05 281.561,1330.49C281.561,1331.89 281.794,1333.05 282.261,1333.99C282.727,1334.92 283.544,1335.74 284.711,1336.43C285.877,1337.13 287.452,1337.84 289.435,1338.54C291.418,1339.24 293.927,1339.93 296.96,1340.63C299.876,1341.34 302.705,1342.15 305.447,1343.09C308.188,1344.02 310.755,1345.36 313.146,1347.11C315.538,1348.86 317.462,1351.05 318.921,1353.67C320.379,1356.3 321.108,1359.53 321.108,1363.38C321.108,1366.53 320.612,1369.51 319.621,1372.31C318.629,1375.11 316.996,1377.53 314.721,1379.57C312.446,1381.61 309.5,1383.25 305.884,1384.47C302.268,1385.69 297.835,1386.31 292.585,1386.31ZM375.004,1386.31C369.405,1386.31 364.213,1385.35 359.43,1383.43C354.647,1381.51 350.448,1378.83 346.831,1375.39C343.215,1371.96 340.386,1367.92 338.344,1363.26C336.303,1358.61 335.282,1353.54 335.282,1348.07C335.282,1342.6 336.303,1337.54 338.344,1332.88C340.386,1328.23 343.215,1324.18 346.831,1320.75C350.448,1317.32 354.647,1314.64 359.43,1312.72C364.213,1310.8 369.405,1309.84 375.004,1309.84C380.604,1309.84 385.824,1310.8 390.666,1312.72C395.507,1314.64 399.677,1317.32 403.177,1320.75C406.677,1324.18 409.448,1328.23 411.489,1332.88C413.531,1337.54 414.551,1342.6 414.551,1348.07C414.551,1353.54 413.531,1358.61 411.489,1363.26C409.448,1367.92 406.677,1371.96 403.177,1375.39C399.677,1378.83 395.507,1381.51 390.666,1383.43C385.824,1385.35 380.604,1386.31 375.004,1386.31ZM579.39,1384.73L579.39,1311.24L561.716,1311.24L561.716,1384.73L579.39,1384.73ZM450.949,1384.73L450.249,1349.03C450.715,1340.75 452.582,1334.92 455.848,1331.54C459.115,1328.15 463.373,1326.23 468.623,1325.76C470.956,1325.76 472.793,1325.99 474.135,1326.46C475.476,1326.93 476.847,1327.63 478.247,1328.56L484.196,1313.16C482.563,1312.46 480.813,1311.76 478.947,1311.06C477.08,1310.36 474.805,1309.9 472.122,1309.66C468.039,1309.43 464.073,1310.6 460.223,1313.16C456.373,1315.73 453.107,1319.69 450.424,1325.06L450.949,1311.24L433.275,1311.24L433.275,1384.73L450.949,1384.73ZM375.004,1371.08C381.537,1370.38 386.495,1368.08 389.878,1364.17C393.261,1360.26 395.186,1354.87 395.653,1347.99C395.769,1341.22 394.049,1335.79 390.491,1331.71C386.932,1327.63 381.77,1325.41 375.004,1325.06C368.355,1325.3 363.105,1327.48 359.255,1331.62C355.406,1335.77 353.481,1341.22 353.481,1347.99C353.714,1354.75 355.756,1360.2 359.605,1364.35C363.455,1368.49 368.588,1370.73 375.004,1371.08ZM570.64,1294.44C567.49,1294.44 564.749,1293.36 562.416,1291.2C560.083,1289.04 558.916,1286.21 558.916,1282.71C558.916,1279.33 560.083,1276.56 562.416,1274.4C564.749,1272.24 567.49,1271.16 570.64,1271.16C573.79,1271.16 576.532,1272.24 578.865,1274.4C581.198,1276.56 582.364,1279.33 582.364,1282.71C582.364,1286.21 581.198,1289.04 578.865,1291.2C576.532,1293.36 573.79,1294.44 570.64,1294.44ZM415.439,1124.24C407.559,1112.64 402.95,1098.63 402.943,1083.56C402.927,1043.49 435.447,1010.94 475.52,1010.92C515.594,1010.9 548.142,1043.43 548.159,1083.5C548.165,1098.62 543.536,1112.68 535.615,1124.31L474.923,1223.9L415.439,1124.24ZM476.071,1041.3C498.455,1041.3 516.628,1059.47 516.628,1081.85C516.628,1104.24 498.455,1122.41 476.071,1122.41C453.688,1122.41 435.515,1104.24 435.515,1081.85C435.515,1059.47 453.688,1041.3 476.071,1041.3Z" style="fill:rgb(230,136,37);"/>
    </g>
</svg>
