<?xml version="1.0" encoding="UTF-8" standalone="no"?>
<!DOCTYPE svg PUBLIC "-//W3C//DTD SVG 1.1//EN" "http://www.w3.org/Graphics/SVG/1.1/DTD/svg11.dtd">
<svg width="100%" height="100%" viewBox="0 0 813 643" version="1.1" xmlns="http://www.w3.org/2000/svg" xmlns:xlink="http://www.w3.org/1999/xlink" xml:space="preserve" xmlns:serif="http://www.serif.com/" style="fill-rule:evenodd;clip-rule:evenodd;stroke-linejoin:round;stroke-miterlimit:1.41421;">
    <g id="Calque2" transform="matrix(1,0,0,1,-70.47,-856.275)">
        <path d="M883.209,1498.42L70.47,1498.42L476.84,856.275L883.209,1498.42ZM410.794,1435.89C411.943,1441.12 414.242,1445.14 417.691,1447.96C421.139,1450.78 425.894,1452.19 431.955,1452.19C436.343,1452.19 440.079,1451.46 443.162,1450C446.244,1448.53 448.883,1446.91 451.077,1445.14L460.325,1454.86C456.982,1457.89 453.089,1460.42 448.648,1462.46C444.207,1464.5 438.695,1465.52 432.111,1465.52C426.468,1465.52 421.348,1464.65 416.75,1462.93C412.152,1461.2 408.26,1458.83 405.073,1455.8C401.886,1452.77 399.404,1449.13 397.627,1444.9C395.851,1440.67 394.963,1436.1 394.963,1431.19C394.963,1426.28 395.877,1421.73 397.706,1417.55C399.534,1413.37 402.016,1409.74 405.151,1406.66C408.286,1403.57 411.996,1401.17 416.28,1399.45C420.564,1397.72 425.162,1396.86 430.074,1396.86C435.716,1396.86 440.706,1397.85 445.043,1399.84C449.379,1401.82 453.011,1404.57 455.937,1408.07C458.862,1411.57 461.031,1415.75 462.441,1420.61C463.852,1425.47 464.401,1430.35 464.087,1435.26L410.794,1435.89ZM617.854,1464.1L617.384,1452.19C619.479,1456.16 622.465,1459.38 626.343,1461.83C630.221,1464.29 634.937,1465.52 640.492,1465.52C644.789,1465.52 648.824,1464.65 652.597,1462.93C656.369,1461.2 659.644,1458.8 662.422,1455.72C665.199,1452.63 667.4,1449 669.025,1444.82C670.649,1440.64 671.461,1436.05 671.461,1431.03C671.461,1426.02 670.676,1421.42 669.104,1417.24C667.533,1413.06 665.358,1409.45 662.581,1406.42C659.803,1403.39 656.555,1401.04 652.834,1399.37C649.114,1397.7 645.106,1396.86 640.81,1396.86C635.151,1396.86 630.461,1398.06 626.741,1400.46C623.021,1402.87 619.904,1405.95 617.389,1409.71L617.282,1319.41C617.7,1311.99 619.372,1306.77 622.298,1303.74C625.223,1300.71 629.038,1298.98 633.74,1298.57C635.83,1298.57 637.476,1298.77 638.677,1299.19C639.879,1299.61 641.107,1300.24 642.361,1301.07L647.69,1287.28C646.227,1286.65 644.66,1286.03 642.988,1285.4C641.316,1284.77 639.278,1284.35 636.875,1284.14C633.217,1283.94 629.665,1284.98 626.216,1287.28C622.768,1289.58 619.842,1293.13 617.438,1297.94L617.909,1285.56L602.077,1285.56L602.023,1464.1L617.854,1464.1ZM738.078,1435.89C739.228,1441.12 741.527,1445.14 744.975,1447.96C748.423,1450.78 753.178,1452.19 759.239,1452.19C763.628,1452.19 767.363,1451.46 770.446,1450C773.529,1448.53 776.167,1446.91 778.362,1445.14L787.61,1454.86C784.266,1457.89 780.373,1460.42 775.932,1462.46C771.491,1464.5 765.979,1465.52 759.396,1465.52C753.753,1465.52 748.632,1464.65 744.035,1462.93C739.437,1461.2 735.544,1458.83 732.357,1455.8C729.17,1452.77 726.688,1449.13 724.912,1444.9C723.135,1440.67 722.247,1436.1 722.247,1431.19C722.247,1426.28 723.161,1421.73 724.99,1417.55C726.819,1413.37 729.3,1409.74 732.435,1406.66C735.57,1403.57 739.28,1401.17 743.564,1399.45C747.849,1397.72 752.447,1396.86 757.358,1396.86C763.001,1396.86 767.99,1397.85 772.327,1399.84C776.664,1401.82 780.295,1404.57 783.221,1408.07C786.147,1411.57 788.315,1415.75 789.726,1420.61C791.136,1425.47 791.685,1430.35 791.372,1435.26L738.078,1435.89ZM181.319,1435.89C182.468,1441.12 184.767,1445.14 188.215,1447.96C191.664,1450.78 196.418,1452.19 202.479,1452.19C206.868,1452.19 210.604,1451.46 213.687,1450C216.769,1448.53 219.408,1446.91 221.602,1445.14L230.85,1454.86C227.506,1457.89 223.614,1460.42 219.173,1462.46C214.732,1464.5 209.219,1465.52 202.636,1465.52C196.993,1465.52 191.873,1464.65 187.275,1462.93C182.677,1461.2 178.785,1458.83 175.597,1455.8C172.41,1452.77 169.929,1449.13 168.152,1444.9C166.376,1440.67 165.487,1436.1 165.487,1431.19C165.487,1426.28 166.402,1421.73 168.23,1417.55C170.059,1413.37 172.541,1409.74 175.676,1406.66C178.811,1403.57 182.52,1401.17 186.805,1399.45C191.089,1397.72 195.687,1396.86 200.598,1396.86C206.241,1396.86 211.231,1397.85 215.568,1399.84C219.904,1401.82 223.535,1404.57 226.461,1408.07C229.387,1411.57 231.556,1415.75 232.966,1420.61C234.377,1425.47 234.926,1430.35 234.612,1435.26L181.319,1435.89ZM356.717,1465.52C349.193,1465.52 342.949,1464.13 337.986,1461.36C333.022,1458.59 329.443,1455.43 327.249,1451.88L338.378,1444.04C340.258,1447.17 342.688,1449.5 345.666,1451.02C348.644,1452.53 352.014,1453.29 355.776,1453.29C359.747,1453.18 362.647,1452.45 364.476,1451.09C366.304,1449.74 367.219,1447.96 367.219,1445.77C367.219,1444.41 366.931,1443.31 366.357,1442.47C365.782,1441.64 364.841,1440.85 363.535,1440.12C362.229,1439.39 360.583,1438.74 358.598,1438.16C356.612,1437.59 354.209,1437.04 351.387,1436.52C348.984,1435.89 346.607,1435.08 344.255,1434.09C341.904,1433.09 339.814,1431.81 337.986,1430.25C336.157,1428.68 334.694,1426.77 333.597,1424.53C332.5,1422.28 331.951,1419.54 331.951,1416.3C331.951,1413.06 332.578,1410.21 333.832,1407.75C335.086,1405.3 336.758,1403.26 338.848,1401.64C340.938,1400.02 343.42,1398.82 346.293,1398.04C349.167,1397.25 352.223,1396.86 355.463,1396.86C360.792,1396.86 365.312,1397.83 369.021,1399.76C372.731,1401.69 375.84,1404.02 378.348,1406.74L368.786,1416.77C367.428,1414.36 365.625,1412.48 363.378,1411.12C361.132,1409.77 358.284,1409.03 354.836,1408.93C350.342,1409.35 347.678,1411.54 346.842,1415.51C346.842,1416.77 347.051,1417.81 347.469,1418.65C347.887,1419.48 348.618,1420.21 349.663,1420.84C350.708,1421.47 352.119,1422.1 353.895,1422.72C355.672,1423.35 357.918,1423.98 360.635,1424.6C363.248,1425.23 365.782,1425.96 368.238,1426.8C370.693,1427.63 372.992,1428.84 375.134,1430.4C377.277,1431.97 379.001,1433.93 380.307,1436.28C381.613,1438.63 382.266,1441.53 382.266,1444.98C382.266,1447.8 381.822,1450.47 380.934,1452.98C380.046,1455.48 378.583,1457.65 376.545,1459.48C374.507,1461.31 371.869,1462.77 368.629,1463.87C365.39,1464.97 361.419,1465.52 356.717,1465.52ZM582.587,1464.1L582.587,1423.98C582.587,1415.51 580.418,1408.88 576.082,1404.07C571.745,1399.26 565.658,1396.7 557.821,1396.39C552.701,1396.08 548.051,1397.17 543.871,1399.68C539.691,1402.19 536.347,1405.43 533.839,1409.4C532.174,1405.43 529.78,1402.35 526.658,1400.15C523.536,1397.96 519.583,1396.86 514.797,1396.86C506.262,1396.86 500.122,1401.09 496.377,1409.56L496.847,1398.27L480.859,1398.27L480.859,1464.1L496.847,1464.1L496.69,1428.05C496.586,1422.41 497.884,1418.23 500.586,1415.51C503.287,1412.8 506.976,1411.44 511.652,1411.44C515.912,1411.54 519.029,1412.77 521.003,1415.12C522.977,1417.47 524.016,1420.95 524.121,1425.55L523.807,1464.1L539.639,1464.1L539.639,1428.05C539.639,1422.51 540.919,1418.36 543.479,1415.59C546.039,1412.82 549.67,1411.44 554.373,1411.44C558.97,1411.44 562.236,1412.64 564.169,1415.04C566.102,1417.45 567.069,1420.95 567.069,1425.55L566.756,1464.1L582.587,1464.1ZM313.769,1464.1L313.769,1425.07C313.769,1416.09 311.47,1409.16 306.872,1404.31C302.274,1399.45 296.37,1397.02 289.159,1397.02C284.144,1396.91 279.703,1398.04 275.836,1400.39C271.97,1402.74 268.992,1406.11 266.902,1410.5L267.215,1398.27L251.384,1398.27L251.384,1464.1L267.215,1464.1L266.902,1428.37C267.111,1423.04 268.756,1418.8 271.839,1415.67C274.922,1412.54 279.076,1410.97 284.3,1410.97C289.107,1411.38 292.556,1412.87 294.646,1415.43C296.736,1418 297.937,1421.63 298.251,1426.33L297.937,1464.1L313.769,1464.1ZM704.848,1464.1L704.848,1350.93L689.017,1350.93L689.017,1464.1L704.848,1464.1ZM636.429,1451.56C642.201,1451.56 646.765,1449.71 650.123,1446C653.481,1442.29 655.16,1437.3 655.16,1431.03C655.16,1425.07 653.481,1420.24 650.123,1416.53C646.765,1412.82 642.201,1410.97 636.429,1410.97C630.554,1410.97 625.885,1412.82 622.422,1416.53C618.959,1420.24 617.228,1425.07 617.228,1431.03C617.228,1437.3 618.959,1442.29 622.422,1446C625.885,1449.71 630.554,1451.56 636.429,1451.56ZM218.624,1425.55C217.893,1421.05 216.116,1417.34 213.295,1414.42C210.473,1411.49 206.293,1409.92 200.755,1409.71C195.635,1409.71 191.35,1411.07 187.902,1413.79C184.454,1416.51 182.207,1420.53 181.162,1425.86L218.624,1425.55ZM448.099,1425.55C447.368,1421.05 445.591,1417.34 442.77,1414.42C439.949,1411.49 435.769,1409.92 430.23,1409.71C425.11,1409.71 420.826,1411.07 417.377,1413.79C413.929,1416.51 411.682,1420.53 410.637,1425.86L448.099,1425.55ZM775.384,1425.55C774.652,1421.05 772.876,1417.34 770.054,1414.42C767.233,1411.49 763.053,1409.92 757.515,1409.71C752.394,1409.71 748.11,1411.07 744.661,1413.79C741.213,1416.51 738.966,1420.53 737.921,1425.86L775.384,1425.55ZM528.877,1285.56L530.131,1251.23L513.986,1251.23L513.986,1285.56L504.112,1285.56L504.112,1298.88L513.986,1298.88L513.986,1329.13C513.986,1333.52 514.483,1337.23 515.476,1340.26C516.468,1343.29 517.879,1345.75 519.708,1347.63C521.536,1349.51 523.731,1350.87 526.291,1351.7C528.851,1352.54 531.699,1352.96 534.834,1352.96C539.118,1352.96 542.592,1352.31 545.257,1351.02C547.922,1349.73 550.404,1348.1 552.703,1346.14L544.238,1335.71C543.402,1336.76 542.357,1337.62 541.103,1338.3C539.849,1338.98 538.282,1339.32 536.401,1339.32C534.311,1339.32 532.691,1338.64 531.542,1337.27C530.392,1335.91 529.713,1333.34 529.504,1329.56L529.034,1298.88L547.373,1298.88L547.373,1285.56L528.877,1285.56ZM324.481,1352.8C316.958,1352.8 310.714,1351.41 305.75,1348.65C300.787,1345.88 297.208,1342.71 295.013,1339.16L306.142,1331.33C308.023,1334.46 310.453,1336.79 313.431,1338.3C316.409,1339.82 319.779,1340.57 323.541,1340.57C327.512,1340.47 330.412,1339.74 332.24,1338.38C334.069,1337.02 334.983,1335.24 334.983,1333.05C334.983,1331.69 334.696,1330.59 334.121,1329.76C333.546,1328.92 332.606,1328.14 331.3,1327.41C329.994,1326.67 328.348,1326.02 326.362,1325.45C324.377,1324.87 321.973,1324.32 319.152,1323.8C316.749,1323.17 314.371,1322.37 312.02,1321.37C309.669,1320.38 307.579,1319.1 305.75,1317.53C303.922,1315.96 302.459,1314.06 301.361,1311.81C300.264,1309.56 299.716,1306.82 299.716,1303.58C299.716,1300.34 300.343,1297.49 301.597,1295.04C302.85,1292.58 304.522,1290.55 306.612,1288.93C308.702,1287.31 311.184,1286.1 314.058,1285.32C316.931,1284.54 319.988,1284.14 323.227,1284.14C328.557,1284.14 333.076,1285.11 336.786,1287.05C340.495,1288.98 343.604,1291.3 346.112,1294.02L336.551,1304.05C335.192,1301.65 333.39,1299.77 331.143,1298.41C328.896,1297.05 326.049,1296.32 322.6,1296.21C318.107,1296.63 315.442,1298.83 314.606,1302.8C314.606,1304.05 314.815,1305.1 315.233,1305.93C315.651,1306.77 316.383,1307.5 317.428,1308.13C318.473,1308.75 319.883,1309.38 321.66,1310.01C323.436,1310.63 325.683,1311.26 328.4,1311.89C331.012,1312.52 333.546,1313.25 336.002,1314.08C338.458,1314.92 340.757,1316.12 342.899,1317.69C345.041,1319.26 346.765,1321.21 348.072,1323.57C349.378,1325.92 350.031,1328.82 350.031,1332.27C350.031,1335.09 349.587,1337.75 348.698,1340.26C347.81,1342.77 346.347,1344.94 344.31,1346.77C342.272,1348.59 339.633,1350.06 336.394,1351.15C333.155,1352.25 329.184,1352.8 324.481,1352.8ZM398.308,1352.8C393.293,1352.8 388.642,1351.94 384.358,1350.22C380.074,1348.5 376.312,1346.1 373.072,1343.03C369.833,1339.95 367.299,1336.33 365.47,1332.16C363.642,1327.99 362.727,1323.45 362.727,1318.55C362.727,1313.65 363.642,1309.12 365.47,1304.95C367.299,1300.78 369.833,1297.15 373.072,1294.08C376.312,1291 380.074,1288.6 384.358,1286.88C388.642,1285.16 393.293,1284.3 398.308,1284.3C403.324,1284.3 408,1285.16 412.337,1286.88C416.674,1288.6 420.409,1291 423.544,1294.08C426.679,1297.15 429.161,1300.78 430.99,1304.95C432.819,1309.12 433.733,1313.65 433.733,1318.55C433.733,1323.45 432.819,1327.99 430.99,1332.16C429.161,1336.33 426.679,1339.95 423.544,1343.03C420.409,1346.1 416.674,1348.5 412.337,1350.22C408,1351.94 403.324,1352.8 398.308,1352.8ZM581.387,1351.39L581.387,1285.56L565.556,1285.56L565.556,1351.39L581.387,1351.39ZM466.336,1351.39L465.709,1319.41C466.127,1311.99 467.799,1306.77 470.725,1303.74C473.651,1300.71 477.465,1298.98 482.167,1298.57C484.257,1298.57 485.903,1298.77 487.105,1299.19C488.306,1299.61 489.534,1300.24 490.788,1301.07L496.118,1287.28C494.655,1286.65 493.087,1286.03 491.415,1285.4C489.743,1284.77 487.706,1284.35 485.302,1284.14C481.645,1283.94 478.092,1284.98 474.643,1287.28C471.195,1289.58 468.269,1293.13 465.866,1297.94L466.336,1285.56L450.505,1285.56L450.505,1351.39L466.336,1351.39ZM398.308,1339.16C404.16,1338.54 408.601,1336.47 411.632,1332.97C414.662,1329.47 416.386,1324.64 416.804,1318.47C416.909,1312.41 415.368,1307.55 412.18,1303.89C408.993,1300.24 404.369,1298.25 398.308,1297.94C392.352,1298.15 387.65,1300.11 384.201,1303.82C380.753,1307.53 379.029,1312.41 379.029,1318.47C379.238,1324.53 381.066,1329.42 384.515,1333.13C387.963,1336.84 392.561,1338.85 398.308,1339.16ZM573.55,1270.51C570.728,1270.51 568.273,1269.54 566.183,1267.61C564.093,1265.67 563.048,1263.14 563.048,1260.01C563.048,1256.98 564.093,1254.49 566.183,1252.56C568.273,1250.63 570.728,1249.66 573.55,1249.66C576.371,1249.66 578.827,1250.63 580.917,1252.56C583.007,1254.49 584.052,1256.98 584.052,1260.01C584.052,1263.14 583.007,1265.67 580.917,1267.61C578.827,1269.54 576.371,1270.51 573.55,1270.51ZM415.439,1124.24C407.559,1112.64 402.95,1098.63 402.943,1083.56C402.927,1043.49 435.447,1010.94 475.52,1010.92C515.594,1010.9 548.142,1043.43 548.159,1083.5C548.165,1098.62 543.536,1112.68 535.615,1124.31L474.923,1223.9L415.439,1124.24ZM476.071,1041.3C498.455,1041.3 516.628,1059.47 516.628,1081.85C516.628,1104.24 498.455,1122.41 476.071,1122.41C453.688,1122.41 435.515,1104.24 435.515,1081.85C435.515,1059.47 453.688,1041.3 476.071,1041.3Z" style="fill:rgb(230,136,37);"/>
    </g>
</svg>
